<?xml version="1.0" standalone="no"?>
<!DOCTYPE svg PUBLIC "-//W3C//DTD SVG 20010904//EN"
 "http://www.w3.org/TR/2001/REC-SVG-20010904/DTD/svg10.dtd">
<svg version="1.0" xmlns="http://www.w3.org/2000/svg"
 width="402.000000pt" height="600.000000pt" viewBox="0 0 402.000000 600.000000"
 preserveAspectRatio="xMidYMid meet">

<g transform="translate(0.000000,600.000000) scale(0.100000,-0.100000)"
fill="#000000" stroke="none">
<path d="M0 3000 l0 -3000 2010 0 2010 0 0 3000 0 3000 -22 0 c-17 0 -285
-262 -1005 -982 l-983 -983 -983 983 c-720 720 -988 982 -1005 982 l-22 0 0
-3000z m2985 1920 l975 975 0 -2918 0 -2917 -1950 0 -1950 0 0 2917 0 2918
975 -975 975 -975 975 975z"/>
</g>
</svg>
